<svg xmlns="http://www.w3.org/2000/svg" version="1.1" xmlns:xlink="http://www.w3.org/1999/xlink" xmlns:svgjs="http://svgjs.dev/svgjs" width="1000" height="1000" viewBox="0 0 1000 1000"><rect width="1000" height="1000" fill="#ffffff"></rect><g transform="matrix(0.7,0,0,0.7,149.57575757575756,383.24145545255675)"><svg viewBox="0 0 396 132" data-background-color="#233d57" preserveAspectRatio="xMidYMid meet" height="333" width="1000" xmlns="http://www.w3.org/2000/svg" xmlns:xlink="http://www.w3.org/1999/xlink"><g id="tight-bounds" transform="matrix(1,0,0,1,0.2400000000000091,0.11809472442087099)"><svg viewBox="0 0 395.52 131.76381055115823" height="131.76381055115823" width="395.52"><g><svg viewBox="0 0 643.8376246308571 214.48851839999998" height="131.76381055115823" width="395.52"><g transform="matrix(1,0,0,1,248.31762463085713,9.196425042106029)"><svg viewBox="0 0 395.52 196.09566831578792" height="196.09566831578792" width="395.52"><g id="textblocktransform"><svg viewBox="0 0 395.52 196.09566831578792" height="196.09566831578792" width="395.52" id="textblock"><g><svg viewBox="0 0 395.52 143.29752380952382" height="143.29752380952382" width="395.52"><g transform="matrix(1,0,0,1,0,0)"><svg width="395.52" viewBox="0 -29.5 125.99 45.65" height="143.29752380952382" data-palette-color="#f8fafc"><path d="M1.5 0L0 0 0-29.5 1.5-29.5 1.5 0ZM7.5 0L3 0 3-29.5 7.5-29.5 7.5 0ZM10.5 0L9 0 9-29.5 10.5-29.5 10.5 0ZM21 0L16.5 0 16.5-29.5 21-29.5 21 0ZM24 0L22.5 0 22.5-29.5 24-29.5 24 0ZM9.6 15.95L9.6 14.85 11.9 14.85 11.9 5.45 9.75 5.45 9.75 4.35 15.5 4.35 15.5 5.45 13.2 5.45 13.2 14.85 15.6 14.85 15.6 15.95 9.6 15.95ZM27 0L25.5 0 25.5-29.5 27-29.5 27 0ZM33 0L28.5 0 28.5-29.5 33-29.5 33 0ZM36 0L34.5 0 34.5-29.5 36-29.5 36 0ZM43.5 0L42 0 42-29.5 43.5-29.5 43.5 0ZM49.5 0L45 0 45-29.5 49.5-29.5 49.5 0ZM34.5 15.95L34.5 4.35 37.8 4.35Q39.7 4.35 40.65 5.1L40.65 5.1Q41.65 5.85 41.65 7.2L41.65 7.2Q41.65 8.05 41.2 8.75L41.2 8.75Q40.7 9.45 39.9 9.75L39.9 9.75Q40.9 10.1 41.5 10.9L41.5 10.9Q42.1 11.75 42.1 12.7L42.1 12.7Q42.1 14.2 41 15.1L41 15.1Q39.95 15.95 37.75 15.95L37.75 15.95 34.5 15.95ZM35.75 9.15L37.6 9.15Q40.35 9.15 40.35 7.3L40.35 7.3Q40.35 6.5 39.7 6L39.7 6Q39.1 5.45 37.8 5.45L37.8 5.45 35.75 5.45 35.75 9.15ZM35.75 14.8L38 14.8Q40.7 14.8 40.7 12.6L40.7 12.6Q40.7 10.25 37.65 10.25L37.65 10.25 35.75 10.25 35.75 14.8ZM55.5 0L51 0 51-29.5 55.5-29.5 55.5 0ZM58.5 0L57 0 57-29.5 58.5-29.5 58.5 0ZM64.5 0L60 0 60-29.5 64.5-29.5 64.5 0ZM67.5 0L66 0 66-29.5 67.5-29.5 67.5 0ZM75 0L73.5 0 73.5-29.5 75-29.5 75 0ZM63.75 16.15L63.75 16.15Q61.75 16.15 60.7 14.6L60.7 14.6Q59.6 13.05 59.6 10.2L59.6 10.2Q59.6 7.45 60.7 5.85L60.7 5.85Q61.8 4.3 63.75 4.3L63.75 4.3Q65.7 4.3 66.8 5.85L66.8 5.85Q67.9 7.45 67.9 10.2L67.9 10.2Q67.9 13.05 66.8 14.6L66.8 14.6Q65.75 16.15 63.75 16.15ZM63.75 15L63.75 15Q65.09 15 65.8 13.8L65.8 13.8Q66.55 12.55 66.55 10.2L66.55 10.2Q66.55 8 65.8 6.7L65.8 6.7Q65.05 5.45 63.75 5.45L63.75 5.45Q62.45 5.45 61.7 6.7L61.7 6.7Q60.95 8 60.95 10.2L60.95 10.2Q60.95 12.55 61.65 13.8L61.65 13.8Q62.4 15 63.75 15ZM80.99 0L76.49 0 76.49-29.5 80.99-29.5 80.99 0ZM83.99 0L82.49 0 82.49-29.5 83.99-29.5 83.99 0ZM89.99 0L85.49 0 85.49-29.5 89.99-29.5 89.99 0ZM92.99 0L91.49 0 91.49-29.5 92.99-29.5 92.99 0ZM100.49 0L98.99 0 98.99-29.5 100.49-29.5 100.49 0ZM89.24 16.15L89.24 16.15Q87.24 16.15 86.19 14.6L86.19 14.6Q85.09 13.05 85.09 10.2L85.09 10.2Q85.09 7.45 86.19 5.85L86.19 5.85Q87.29 4.3 89.24 4.3L89.24 4.3Q91.19 4.3 92.29 5.85L92.29 5.85Q93.39 7.45 93.39 10.2L93.39 10.2Q93.39 13.05 92.29 14.6L92.29 14.6Q91.24 16.15 89.24 16.15ZM89.24 15L89.24 15Q90.59 15 91.29 13.8L91.29 13.8Q92.04 12.55 92.04 10.2L92.04 10.2Q92.04 8 91.29 6.7L91.29 6.7Q90.54 5.45 89.24 5.45L89.24 5.45Q87.94 5.45 87.19 6.7L87.19 6.7Q86.44 8 86.44 10.2L86.44 10.2Q86.44 12.55 87.14 13.8L87.14 13.8Q87.89 15 89.24 15ZM103.49 0L101.99 0 101.99-29.5 103.49-29.5 103.49 0ZM109.49 0L104.99 0 104.99-29.5 109.49-29.5 109.49 0ZM115.49 0L110.99 0 110.99-29.5 115.49-29.5 115.49 0ZM122.99 0L121.49 0 121.49-29.5 122.99-29.5 122.99 0ZM125.99 0L124.49 0 124.49-29.5 125.99-29.5 125.99 0ZM111.54 15.95L111.54 4.35 118.19 4.35 118.19 5.5 112.84 5.5 112.84 9.15 117.19 9.15 117.19 10.25 112.84 10.25 112.84 15.95 111.54 15.95Z" opacity="1" transform="matrix(1,0,0,1,0,0)" fill="#000000" class="wordmark-text-0" data-fill-palette-color="primary" id="text-0"></path></svg></g></svg></g><g transform="matrix(1,0,0,1,0,177.12663004038097)"><svg viewBox="0 0 375.74399999999997 18.96903827540695" height="18.96903827540695" width="375.74399999999997"><g transform="matrix(1,0,0,1,0,0)"><svg width="375.74399999999997" viewBox="4.35 -35.85 909.11 45.900000000000006" height="18.96903827540695" data-palette-color="#f8fafc"><path d="M4.35-34.5L8.75-34.5 8.75 0 4.35 0 4.35-34.5ZM46.65-24.95L46.65-24.95Q49.8-24.95 51.47-23.25 53.15-21.55 53.15-18.25L53.15-18.25 53.15 0 48.95 0 48.95-17.05Q48.9-19.3 48.05-20.33 47.2-21.35 45.15-21.35L45.15-21.35Q43.85-21.35 42.67-20.93 41.5-20.5 40.1-19.6 38.7-18.7 36.7-17.25L36.7-17.25 36.45-20.25Q39.1-22.6 41.6-23.78 44.1-24.95 46.65-24.95ZM17-24.35L20.5-24.35 20.8-19.7 21.25-18.95 21.25 0 17 0 17-24.35ZM30.7-24.95L30.7-24.95Q33.8-24.95 35.45-23.28 37.1-21.6 37.15-18.25L37.15-18.25 37.15 0 33.05 0 33.05-17.05Q33.05-19.4 32.1-20.38 31.15-21.35 29.25-21.35L29.25-21.35Q28-21.35 26.82-20.95 25.65-20.55 24.22-19.65 22.8-18.75 20.75-17.25L20.75-17.25 20.45-20.25Q23.1-22.6 25.6-23.78 28.1-24.95 30.7-24.95ZM90.45-24.95L90.45-24.95Q93.6-24.95 95.27-23.25 96.95-21.55 96.95-18.25L96.95-18.25 96.95 0 92.75 0 92.75-17.05Q92.7-19.3 91.85-20.33 91-21.35 88.95-21.35L88.95-21.35Q87.65-21.35 86.47-20.93 85.3-20.5 83.9-19.6 82.5-18.7 80.5-17.25L80.5-17.25 80.25-20.25Q82.9-22.6 85.4-23.78 87.9-24.95 90.45-24.95ZM60.8-24.35L64.3-24.35 64.6-19.7 65.05-18.95 65.05 0 60.8 0 60.8-24.35ZM74.5-24.95L74.5-24.95Q77.6-24.95 79.25-23.28 80.9-21.6 80.95-18.25L80.95-18.25 80.95 0 76.85 0 76.85-17.05Q76.85-19.4 75.9-20.38 74.95-21.35 73.05-21.35L73.05-21.35Q71.8-21.35 70.62-20.95 69.45-20.55 68.02-19.65 66.6-18.75 64.55-17.25L64.55-17.25 64.25-20.25Q66.9-22.6 69.4-23.78 71.9-24.95 74.5-24.95ZM114.59-24.95L114.59-24.95Q120.09-24.95 122.57-22.95 125.04-20.95 125.04-17L125.04-17Q125.09-13.75 123.69-11.93 122.29-10.1 119.24-10.1L119.24-10.1 105.04-10.1 105.04-13.4 118.14-13.4Q119.79-13.4 120.29-14.53 120.79-15.65 120.79-17L120.79-17Q120.74-19.35 119.39-20.35 118.04-21.35 114.79-21.35L114.79-21.35Q112.14-21.35 110.62-20.58 109.09-19.8 108.47-17.88 107.84-15.95 107.84-12.5L107.84-12.5Q107.84-8.6 108.62-6.55 109.39-4.5 111.09-3.75 112.79-3 115.59-3L115.59-3Q117.54-3 119.87-3.18 122.19-3.35 124.04-3.6L124.04-3.6 124.49-0.75Q123.34-0.3 121.67 0 119.99 0.3 118.22 0.45 116.44 0.6 115.04 0.6L115.04 0.6Q110.84 0.6 108.29-0.68 105.74-1.95 104.57-4.78 103.39-7.6 103.39-12.25L103.39-12.25Q103.39-17.05 104.57-19.83 105.74-22.6 108.22-23.78 110.69-24.95 114.59-24.95ZM131.44-24.35L134.74-24.35 135.29-19.7 135.69-18.95 135.69 0 131.44 0 131.44-24.35ZM145.59-24.95L146.69-24.95 146.19-20.95 144.79-20.95Q142.64-20.95 140.49-20.08 138.34-19.2 135.24-17.6L135.24-17.6 134.89-20.25Q137.59-22.45 140.32-23.7 143.04-24.95 145.59-24.95L145.59-24.95ZM159.59-24.95L159.59-24.95Q161.19-24.95 162.99-24.85 164.79-24.75 166.56-24.6 168.34-24.45 169.84-24.2L169.84-24.2 169.49-21.1Q167.19-21.2 164.86-21.28 162.54-21.35 160.24-21.35L160.24-21.35Q157.99-21.4 156.69-21.25 155.39-21.1 154.81-20.45 154.24-19.8 154.24-18.25L154.24-18.25Q154.24-16.35 155.14-15.75 156.04-15.15 157.79-14.75L157.79-14.75 164.89-13.15Q167.79-12.45 169.16-11 170.54-9.55 170.54-6.45L170.54-6.45Q170.54-3.45 169.41-1.95 168.29-0.45 165.99 0.05 163.69 0.55 160.14 0.55L160.14 0.55Q158.84 0.55 156.26 0.45 153.69 0.35 150.59-0.15L150.59-0.15 150.89-3.25Q152.09-3.2 153.44-3.13 154.79-3.05 156.26-3.05 157.74-3.05 159.29-3.05L159.29-3.05Q162.04-3.05 163.59-3.3 165.14-3.55 165.79-4.28 166.44-5 166.44-6.45L166.44-6.45Q166.44-8.25 165.39-8.85 164.34-9.45 162.59-9.85L162.59-9.85 155.59-11.45Q153.59-11.95 152.39-12.78 151.19-13.6 150.64-14.93 150.09-16.25 150.09-18.25L150.09-18.25Q150.09-21.1 151.09-22.55 152.09-24 154.19-24.5 156.29-25 159.59-24.95ZM177.09-24.35L181.29-24.35 181.29 0 177.09 0 177.09-24.35ZM178.19-34.7L180.19-34.7Q181.49-34.7 181.49-33.4L181.49-33.4 181.49-30.55Q181.49-29.25 180.19-29.25L180.19-29.25 178.19-29.25Q176.89-29.25 176.89-30.55L176.89-30.55 176.89-33.4Q176.89-34.7 178.19-34.7L178.19-34.7ZM206.43-24.35L210.93-24.35 202.03-1.05Q201.83-0.55 201.46-0.28 201.08 0 200.53 0L200.53 0 196.68 0Q196.18 0 195.78-0.28 195.38-0.55 195.18-1.05L195.18-1.05 186.28-24.35 190.83-24.35 196.83-7.3Q197.23-6.25 197.58-5.15 197.93-4.05 198.28-3.05L198.28-3.05 198.93-3.05Q199.33-4.1 199.71-5.18 200.08-6.25 200.43-7.3L200.43-7.3 206.43-24.35ZM225.48-24.95L225.48-24.95Q230.98-24.95 233.46-22.95 235.93-20.95 235.93-17L235.93-17Q235.98-13.75 234.58-11.93 233.18-10.1 230.13-10.1L230.13-10.1 215.93-10.1 215.93-13.4 229.03-13.4Q230.68-13.4 231.18-14.53 231.68-15.65 231.68-17L231.68-17Q231.63-19.35 230.28-20.35 228.93-21.35 225.68-21.35L225.68-21.35Q223.03-21.35 221.51-20.58 219.98-19.8 219.36-17.88 218.73-15.95 218.73-12.5L218.73-12.5Q218.73-8.6 219.51-6.55 220.28-4.5 221.98-3.75 223.68-3 226.48-3L226.48-3Q228.43-3 230.76-3.18 233.08-3.35 234.93-3.6L234.93-3.6 235.38-0.75Q234.23-0.3 232.56 0 230.88 0.3 229.11 0.45 227.33 0.6 225.93 0.6L225.93 0.6Q221.73 0.6 219.18-0.68 216.63-1.95 215.46-4.78 214.28-7.6 214.28-12.25L214.28-12.25Q214.28-17.05 215.46-19.83 216.63-22.6 219.11-23.78 221.58-24.95 225.48-24.95ZM265.13-34.9L265.13-34.9Q269.38-34.9 271.88-34.13 274.38-33.35 275.5-31.4 276.63-29.45 276.63-25.9L276.63-25.9Q276.63-22.2 275.25-20.25 273.88-18.3 270.78-18L270.78-18 270.78-17.8Q274.63-17.45 276.15-15.1 277.68-12.75 277.68-8.6L277.68-8.6Q277.68-5.05 276.58-3.1 275.48-1.15 273.05-0.38 270.63 0.4 266.68 0.4L266.68 0.4Q263.73 0.4 261.6 0.38 259.48 0.35 257.68 0.25 255.88 0.15 253.93 0L253.93 0 254.63-3.5Q255.73-3.45 258.8-3.4 261.88-3.35 265.98-3.35L265.98-3.35Q268.73-3.35 270.3-3.83 271.88-4.3 272.55-5.6 273.23-6.9 273.23-9.35L273.23-9.35Q273.23-12.05 272.53-13.5 271.83-14.95 270.18-15.55 268.53-16.15 265.68-16.2L265.68-16.2 254.58-16.2 254.58-19.55 265.63-19.55Q268.13-19.6 269.6-20.08 271.08-20.55 271.73-21.83 272.38-23.1 272.38-25.4L272.38-25.4Q272.38-27.75 271.68-29 270.98-30.25 269.35-30.7 267.73-31.15 264.93-31.15L264.93-31.15Q262.48-31.15 260.53-31.15 258.58-31.15 257.1-31.13 255.63-31.1 254.63-31L254.63-31 253.93-34.5Q255.68-34.7 257.25-34.77 258.83-34.85 260.7-34.88 262.58-34.9 265.13-34.9ZM253.93-34.5L258.23-34.5 258.23 0 253.93 0 253.93-34.5ZM294.47-24.95L294.47-24.95Q299.97-24.95 302.45-22.95 304.92-20.95 304.92-17L304.92-17Q304.97-13.75 303.57-11.93 302.17-10.1 299.12-10.1L299.12-10.1 284.92-10.1 284.92-13.4 298.02-13.4Q299.67-13.4 300.17-14.53 300.67-15.65 300.67-17L300.67-17Q300.62-19.35 299.27-20.35 297.92-21.35 294.67-21.35L294.67-21.35Q292.02-21.35 290.5-20.58 288.97-19.8 288.35-17.88 287.72-15.95 287.72-12.5L287.72-12.5Q287.72-8.6 288.5-6.55 289.27-4.5 290.97-3.75 292.67-3 295.47-3L295.47-3Q297.42-3 299.75-3.18 302.07-3.35 303.92-3.6L303.92-3.6 304.37-0.75Q303.22-0.3 301.55 0 299.87 0.3 298.1 0.45 296.32 0.6 294.92 0.6L294.92 0.6Q290.72 0.6 288.17-0.68 285.62-1.95 284.45-4.78 283.27-7.6 283.27-12.25L283.27-12.25Q283.27-17.05 284.45-19.83 285.62-22.6 288.1-23.78 290.57-24.95 294.47-24.95ZM319.42-24.95L319.42-24.95Q321.02-24.95 322.82-24.85 324.62-24.75 326.4-24.6 328.17-24.45 329.67-24.2L329.67-24.2 329.32-21.1Q327.02-21.2 324.7-21.28 322.37-21.35 320.07-21.35L320.07-21.35Q317.82-21.4 316.52-21.25 315.22-21.1 314.65-20.45 314.07-19.8 314.07-18.25L314.07-18.25Q314.07-16.35 314.97-15.75 315.87-15.15 317.62-14.75L317.62-14.75 324.72-13.15Q327.62-12.45 329-11 330.37-9.55 330.37-6.45L330.37-6.45Q330.37-3.45 329.25-1.95 328.12-0.45 325.82 0.05 323.52 0.55 319.97 0.55L319.97 0.55Q318.67 0.55 316.1 0.45 313.52 0.35 310.42-0.15L310.42-0.15 310.72-3.25Q311.92-3.2 313.27-3.13 314.62-3.05 316.1-3.05 317.57-3.05 319.12-3.05L319.12-3.05Q321.87-3.05 323.42-3.3 324.97-3.55 325.62-4.28 326.27-5 326.27-6.45L326.27-6.45Q326.27-8.25 325.22-8.85 324.17-9.45 322.42-9.85L322.42-9.85 315.42-11.45Q313.42-11.95 312.22-12.78 311.02-13.6 310.47-14.93 309.92-16.25 309.92-18.25L309.92-18.25Q309.92-21.1 310.92-22.55 311.92-24 314.02-24.5 316.12-25 319.42-24.95ZM338.57-31.55L342.82-31.55 342.82-6.7Q342.82-4.95 343.57-4.2 344.32-3.45 346.12-3.45L346.12-3.45 349.82-3.45 350.32-0.2Q349.52 0 348.47 0.15 347.42 0.3 346.42 0.38 345.42 0.45 344.82 0.45L344.82 0.45Q341.77 0.45 340.17-1.25 338.57-2.95 338.57-6.15L338.57-6.15 338.57-31.55ZM338.97-24.35L350.57-24.35 350.57-21 334.17-21 334.17-24.1 338.97-24.35ZM379.71-35.15L379.71-35.15Q383.46-35.15 386.09-34.25 388.71-33.35 390.29-31.28 391.86-29.2 392.59-25.75 393.31-22.3 393.31-17.25L393.31-17.25Q393.31-12.2 392.59-8.75 391.86-5.3 390.29-3.23 388.71-1.15 386.09-0.25 383.46 0.65 379.71 0.65L379.71 0.65Q375.96 0.65 373.34-0.25 370.71-1.15 369.11-3.23 367.51-5.3 366.79-8.75 366.06-12.2 366.06-17.25L366.06-17.25Q366.06-22.3 366.79-25.75 367.51-29.2 369.11-31.28 370.71-33.35 373.34-34.25 375.96-35.15 379.71-35.15ZM379.71-31.2L379.71-31.2Q376.31-31.2 374.34-29.9 372.36-28.6 371.54-25.58 370.71-22.55 370.71-17.25L370.71-17.25Q370.71-12 371.54-8.95 372.36-5.9 374.34-4.6 376.31-3.3 379.71-3.3L379.71-3.3Q383.11-3.3 385.09-4.6 387.06-5.9 387.89-8.95 388.71-12 388.71-17.25L388.71-17.25Q388.71-22.55 387.89-25.58 387.06-28.6 385.09-29.9 383.11-31.2 379.71-31.2ZM414.26-24.95L414.26-24.95Q418.71-24.95 420.66-21.68 422.61-18.4 422.61-12.05L422.61-12.05Q422.61-7.35 421.61-4.58 420.61-1.8 418.59-0.6 416.56 0.6 413.41 0.6L413.41 0.6Q411.01 0.6 408.69-0.05 406.36-0.7 404.16-2.05L404.16-2.05 404.41-4.6Q406.76-3.95 408.56-3.53 410.36-3.1 412.36-3.1L412.36-3.1Q414.51-3.1 415.79-3.85 417.06-4.6 417.66-6.55 418.26-8.5 418.26-12.05L418.26-12.05Q418.26-15.5 417.71-17.5 417.16-19.5 415.99-20.38 414.81-21.25 412.86-21.25L412.86-21.25Q410.86-21.25 408.91-20.3 406.96-19.35 404.36-17.4L404.36-17.4 403.96-20.25Q405.31-21.7 407.01-22.75 408.71-23.8 410.59-24.38 412.46-24.95 414.26-24.95ZM400.31-24.35L403.81-24.35 404.26-19.3 404.56-18.65 404.56-3.05 404.36-2.45Q404.51-1.05 404.54 0.25 404.56 1.55 404.56 3L404.56 3 404.56 10.05 400.31 10.05 400.31-24.35ZM439.31-24.95L439.31-24.95Q444.81-24.95 447.28-22.95 449.76-20.95 449.76-17L449.76-17Q449.81-13.75 448.41-11.93 447.01-10.1 443.96-10.1L443.96-10.1 429.76-10.1 429.76-13.4 442.86-13.4Q444.51-13.4 445.01-14.53 445.51-15.65 445.51-17L445.51-17Q445.46-19.35 444.11-20.35 442.76-21.35 439.51-21.35L439.51-21.35Q436.86-21.35 435.33-20.58 433.81-19.8 433.18-17.88 432.56-15.95 432.56-12.5L432.56-12.5Q432.56-8.6 433.33-6.55 434.11-4.5 435.81-3.75 437.51-3 440.31-3L440.31-3Q442.26-3 444.58-3.18 446.91-3.35 448.76-3.6L448.76-3.6 449.21-0.75Q448.06-0.3 446.38 0 444.71 0.3 442.93 0.45 441.16 0.6 439.76 0.6L439.76 0.6Q435.56 0.6 433.01-0.68 430.46-1.95 429.28-4.78 428.11-7.6 428.11-12.25L428.11-12.25Q428.11-17.05 429.28-19.83 430.46-22.6 432.93-23.78 435.41-24.95 439.31-24.95ZM470.96-24.95L470.96-24.95Q477.56-24.95 477.56-18.25L477.56-18.25 477.56 0 473.31 0 473.31-17.05Q473.31-19.5 472.51-20.43 471.71-21.35 469.81-21.35L469.81-21.35Q467.56-21.35 465.31-20.25 463.06-19.15 459.96-17.25L459.96-17.25 459.76-20.3Q462.61-22.5 465.41-23.73 468.21-24.95 470.96-24.95ZM456.16-24.35L459.76-24.35 460.11-19.7 460.41-18.95 460.41 0 456.16 0 456.16-24.35ZM504.55-35.85L504.55-35.85Q505.35-35.85 506.6-35.83 507.85-35.8 509.15-35.73 510.45-35.65 511.4-35.5L511.4-35.5 511.05-32.35 506.05-32.35Q503.65-32.35 502.68-31.4 501.7-30.45 501.7-28.25L501.7-28.25 501.7 0 497.45 0 497.45-28.7Q497.45-31 498.15-32.58 498.85-34.15 500.4-35 501.95-35.85 504.55-35.85ZM497.7-24.35L509.5-24.35 509.5-21 493.05-21 493.05-24.1 497.7-24.35ZM527.35-35.15L527.35-35.15Q531.1-35.15 533.72-34.25 536.35-33.35 537.92-31.28 539.5-29.2 540.22-25.75 540.95-22.3 540.95-17.25L540.95-17.25Q540.95-12.2 540.22-8.75 539.5-5.3 537.92-3.23 536.35-1.15 533.72-0.25 531.1 0.65 527.35 0.65L527.35 0.65Q523.6 0.65 520.97-0.25 518.35-1.15 516.75-3.23 515.15-5.3 514.42-8.75 513.7-12.2 513.7-17.25L513.7-17.25Q513.7-22.3 514.42-25.75 515.15-29.2 516.75-31.28 518.35-33.35 520.97-34.25 523.6-35.15 527.35-35.15ZM527.35-31.2L527.35-31.2Q523.95-31.2 521.97-29.9 520-28.6 519.17-25.58 518.35-22.55 518.35-17.25L518.35-17.25Q518.35-12 519.17-8.95 520-5.9 521.97-4.6 523.95-3.3 527.35-3.3L527.35-3.3Q530.75-3.3 532.72-4.6 534.7-5.9 535.52-8.95 536.35-12 536.35-17.25L536.35-17.25Q536.35-22.55 535.52-25.58 534.7-28.6 532.72-29.9 530.75-31.2 527.35-31.2ZM558.25-24.95L558.25-24.95Q562.44-24.95 564.97-23.7 567.5-22.45 568.59-19.63 569.69-16.8 569.69-12.15L569.69-12.15Q569.69-7.5 568.59-4.67 567.5-1.85 564.97-0.6 562.44 0.65 558.25 0.65L558.25 0.65Q554.09 0.65 551.57-0.6 549.04-1.85 547.92-4.67 546.79-7.5 546.79-12.15L546.79-12.15Q546.79-16.8 547.92-19.63 549.04-22.45 551.57-23.7 554.09-24.95 558.25-24.95ZM558.25-21.35L558.25-21.35Q555.59-21.35 554.07-20.53 552.54-19.7 551.89-17.7 551.25-15.7 551.25-12.15L551.25-12.15Q551.25-8.6 551.89-6.6 552.54-4.6 554.07-3.78 555.59-2.95 558.25-2.95L558.25-2.95Q560.89-2.95 562.44-3.78 564-4.6 564.64-6.6 565.29-8.6 565.29-12.15L565.29-12.15Q565.29-15.7 564.64-17.7 564-19.7 562.44-20.53 560.89-21.35 558.25-21.35ZM584.44-24.95L584.44-24.95Q586.84-24.95 589.19-24.33 591.54-23.7 593.69-22.4L593.69-22.4 593.44-19.75Q591.09-20.45 589.29-20.85 587.49-21.25 585.44-21.25L585.44-21.25Q583.34-21.25 582.07-20.53 580.79-19.8 580.19-17.85 579.59-15.9 579.59-12.3L579.59-12.3Q579.59-8.7 580.17-6.7 580.74-4.7 581.99-3.9 583.24-3.1 585.19-3.1L585.19-3.1Q586.64-3.1 587.82-3.48 588.99-3.85 590.32-4.7 591.64-5.55 593.44-6.85L593.44-6.85 593.84-3.85Q591.84-2 589.29-0.7 586.74 0.6 583.79 0.6L583.79 0.6Q579.19 0.6 577.22-2.65 575.24-5.9 575.24-12.25L575.24-12.25Q575.24-17 576.24-19.78 577.24-22.55 579.29-23.75 581.34-24.95 584.44-24.95ZM592.89-35L597.14-35 597.14 0 593.84 0 593.34-4.25 592.89-4.6 592.89-21.3 593.19-22.05Q592.99-23.45 592.94-24.75 592.89-26.05 592.89-27.5L592.89-27.5 592.89-35ZM623.14-34.55L623.14-34.55Q625.54-34.55 627.99-34.52 630.44-34.5 632.84-34.45 635.24-34.4 637.44-34.2L637.44-34.2 637.19-30.8 624.24-30.8Q622.49-30.8 621.69-30.03 620.89-29.25 620.89-27.5L620.89-27.5 620.89 0 616.49 0 616.49-28.35Q616.49-31.3 618.29-32.93 620.09-34.55 623.14-34.55ZM617.34-15.95L617.34-19.5 635.29-19.5 635.29-15.95 617.34-15.95ZM653.43-24.95L653.43-24.95Q656.13-24.95 658.01-24.23 659.88-23.5 660.83-21.8 661.78-20.1 661.78-17.15L661.78-17.15 661.78 0 658.43 0 657.78-5.3 657.48-5.85 657.48-17.15Q657.48-19.4 656.46-20.38 655.43-21.35 652.53-21.35L652.53-21.35Q650.63-21.35 647.76-21.15 644.88-20.95 642.08-20.7L642.08-20.7 641.68-23.85Q643.38-24.15 645.41-24.4 647.43-24.65 649.53-24.8 651.63-24.95 653.43-24.95ZM647.33-15L659.78-15 659.73-11.8 648.08-11.75Q646.33-11.7 645.63-10.83 644.93-9.95 644.93-8.4L644.93-8.4 644.93-6.85Q644.93-4.95 645.83-4.08 646.73-3.2 648.73-3.2L648.73-3.2Q650.13-3.2 651.91-3.73 653.68-4.25 655.48-5.35 657.28-6.45 658.78-8.15L658.78-8.15 658.78-5Q658.23-4.3 657.21-3.38 656.18-2.45 654.76-1.58 653.33-0.7 651.61-0.13 649.88 0.45 647.88 0.45L647.88 0.45Q645.73 0.45 644.08-0.33 642.43-1.1 641.51-2.63 640.58-4.15 640.58-6.35L640.58-6.35 640.58-9Q640.58-11.85 642.36-13.43 644.13-15 647.33-15L647.33-15ZM679.78-24.95L679.78-24.95Q680.88-24.95 682.23-24.85 683.58-24.75 685.01-24.5 686.43-24.25 687.63-23.8L687.63-23.8 687.08-21.05Q685.43-21.2 683.61-21.28 681.78-21.35 680.48-21.35L680.48-21.35Q677.58-21.35 675.88-20.55 674.18-19.75 673.43-17.75 672.68-15.75 672.68-12.2L672.68-12.2Q672.68-8.65 673.43-6.63 674.18-4.6 675.88-3.8 677.58-3 680.48-3L680.48-3Q681.23-3 682.43-3.05 683.63-3.1 685.01-3.2 686.38-3.3 687.63-3.5L687.63-3.5 688.08-0.65Q686.23 0 684.06 0.3 681.88 0.6 679.73 0.6L679.73 0.6Q675.53 0.6 672.98-0.65 670.43-1.9 669.31-4.7 668.18-7.5 668.18-12.2L668.18-12.2Q668.18-16.9 669.33-19.7 670.48-22.5 673.03-23.73 675.58-24.95 679.78-24.95ZM695.68-31.55L699.93-31.55 699.93-6.7Q699.93-4.95 700.68-4.2 701.43-3.45 703.23-3.45L703.23-3.45 706.93-3.45 707.43-0.2Q706.63 0 705.58 0.15 704.53 0.3 703.53 0.38 702.53 0.45 701.93 0.45L701.93 0.45Q698.88 0.45 697.28-1.25 695.68-2.95 695.68-6.15L695.68-6.15 695.68-31.55ZM696.08-24.35L707.68-24.35 707.68-21 691.28-21 691.28-24.1 696.08-24.35ZM720.98-24.95L720.98-24.95Q722.58-24.95 724.38-24.85 726.18-24.75 727.95-24.6 729.73-24.45 731.23-24.2L731.23-24.2 730.88-21.1Q728.58-21.2 726.25-21.28 723.93-21.35 721.63-21.35L721.63-21.35Q719.38-21.4 718.08-21.25 716.78-21.1 716.2-20.45 715.63-19.8 715.63-18.25L715.63-18.25Q715.63-16.35 716.53-15.75 717.43-15.15 719.18-14.75L719.18-14.75 726.28-13.15Q729.18-12.45 730.55-11 731.93-9.55 731.93-6.45L731.93-6.45Q731.93-3.45 730.8-1.95 729.68-0.45 727.38 0.05 725.08 0.55 721.53 0.55L721.53 0.55Q720.23 0.55 717.65 0.45 715.08 0.35 711.98-0.15L711.98-0.15 712.28-3.25Q713.48-3.2 714.83-3.13 716.18-3.05 717.65-3.05 719.13-3.05 720.68-3.05L720.68-3.05Q723.43-3.05 724.98-3.3 726.53-3.55 727.18-4.28 727.83-5 727.83-6.45L727.83-6.45Q727.83-8.25 726.78-8.85 725.73-9.45 723.98-9.85L723.98-9.85 716.98-11.45Q714.98-11.95 713.78-12.78 712.58-13.6 712.03-14.93 711.48-16.25 711.48-18.25L711.48-18.25Q711.48-21.1 712.48-22.55 713.48-24 715.58-24.5 717.68-25 720.98-24.95ZM760.92-24.95L760.92-24.95Q763.62-24.95 765.5-24.23 767.37-23.5 768.32-21.8 769.27-20.1 769.27-17.15L769.27-17.15 769.27 0 765.92 0 765.27-5.3 764.97-5.85 764.97-17.15Q764.97-19.4 763.95-20.38 762.92-21.35 760.02-21.35L760.02-21.35Q758.12-21.35 755.25-21.15 752.37-20.95 749.57-20.7L749.57-20.7 749.17-23.85Q750.87-24.15 752.9-24.4 754.92-24.65 757.02-24.8 759.12-24.95 760.92-24.95ZM754.82-15L767.27-15 767.22-11.8 755.57-11.75Q753.82-11.7 753.12-10.83 752.42-9.95 752.42-8.4L752.42-8.4 752.42-6.85Q752.42-4.95 753.32-4.08 754.22-3.2 756.22-3.2L756.22-3.2Q757.62-3.2 759.4-3.73 761.17-4.25 762.97-5.35 764.77-6.45 766.27-8.15L766.27-8.15 766.27-5Q765.72-4.3 764.7-3.38 763.67-2.45 762.25-1.58 760.82-0.7 759.1-0.13 757.37 0.45 755.37 0.45L755.37 0.45Q753.22 0.45 751.57-0.33 749.92-1.1 749-2.63 748.07-4.15 748.07-6.35L748.07-6.35 748.07-9Q748.07-11.85 749.85-13.43 751.62-15 754.82-15L754.82-15ZM784.97-24.95L784.97-24.95Q787.37-24.95 789.72-24.33 792.07-23.7 794.22-22.4L794.22-22.4 793.97-19.75Q791.62-20.45 789.82-20.85 788.02-21.25 785.97-21.25L785.97-21.25Q783.87-21.25 782.59-20.53 781.32-19.8 780.72-17.85 780.12-15.9 780.12-12.3L780.12-12.3Q780.12-8.7 780.69-6.7 781.27-4.7 782.52-3.9 783.77-3.1 785.72-3.1L785.72-3.1Q787.17-3.1 788.34-3.48 789.52-3.85 790.84-4.7 792.17-5.55 793.97-6.85L793.97-6.85 794.37-3.85Q792.37-2 789.82-0.7 787.27 0.6 784.32 0.6L784.32 0.6Q779.72 0.6 777.74-2.65 775.77-5.9 775.77-12.25L775.77-12.25Q775.77-17 776.77-19.78 777.77-22.55 779.82-23.75 781.87-24.95 784.97-24.95ZM793.42-35L797.67-35 797.67 0 794.37 0 793.87-4.25 793.42-4.6 793.42-21.3 793.72-22.05Q793.52-23.45 793.47-24.75 793.42-26.05 793.42-27.5L793.42-27.5 793.42-35ZM822.67-24.35L827.17-24.35 818.27-1.05Q818.07-0.55 817.69-0.28 817.32 0 816.77 0L816.77 0 812.92 0Q812.42 0 812.02-0.28 811.62-0.55 811.42-1.05L811.42-1.05 802.52-24.35 807.07-24.35 813.07-7.3Q813.47-6.25 813.82-5.15 814.17-4.05 814.52-3.05L814.52-3.05 815.17-3.05Q815.57-4.1 815.94-5.18 816.32-6.25 816.67-7.3L816.67-7.3 822.67-24.35ZM832.21-24.35L836.41-24.35 836.41 0 832.21 0 832.21-24.35ZM833.31-34.7L835.31-34.7Q836.61-34.7 836.61-33.4L836.61-33.4 836.61-30.55Q836.61-29.25 835.31-29.25L835.31-29.25 833.31-29.25Q832.01-29.25 832.01-30.55L832.01-30.55 832.01-33.4Q832.01-34.7 833.31-34.7L833.31-34.7ZM852.51-24.95L852.51-24.95Q854.11-24.95 855.91-24.85 857.71-24.75 859.49-24.6 861.26-24.45 862.76-24.2L862.76-24.2 862.41-21.1Q860.11-21.2 857.79-21.28 855.46-21.35 853.16-21.35L853.16-21.35Q850.91-21.4 849.61-21.25 848.31-21.1 847.74-20.45 847.16-19.8 847.16-18.25L847.16-18.25Q847.16-16.35 848.06-15.75 848.96-15.15 850.71-14.75L850.71-14.75 857.81-13.15Q860.71-12.45 862.09-11 863.46-9.55 863.46-6.45L863.46-6.45Q863.46-3.45 862.34-1.95 861.21-0.45 858.91 0.05 856.61 0.55 853.06 0.55L853.06 0.55Q851.76 0.55 849.19 0.45 846.61 0.35 843.51-0.15L843.51-0.15 843.81-3.25Q845.01-3.2 846.36-3.13 847.71-3.05 849.19-3.05 850.66-3.05 852.21-3.05L852.21-3.05Q854.96-3.05 856.51-3.3 858.06-3.55 858.71-4.28 859.36-5 859.36-6.45L859.36-6.45Q859.36-8.25 858.31-8.85 857.26-9.45 855.51-9.85L855.51-9.85 848.51-11.45Q846.51-11.95 845.31-12.78 844.11-13.6 843.56-14.93 843.01-16.25 843.01-18.25L843.01-18.25Q843.01-21.1 844.01-22.55 845.01-24 847.11-24.5 849.21-25 852.51-24.95ZM880.11-24.95L880.11-24.95Q884.31-24.95 886.83-23.7 889.36-22.45 890.46-19.63 891.56-16.8 891.56-12.15L891.56-12.15Q891.56-7.5 890.46-4.67 889.36-1.85 886.83-0.6 884.31 0.65 880.11 0.65L880.11 0.65Q875.96 0.65 873.43-0.6 870.91-1.85 869.78-4.67 868.66-7.5 868.66-12.15L868.66-12.15Q868.66-16.8 869.78-19.63 870.91-22.45 873.43-23.7 875.96-24.95 880.11-24.95ZM880.11-21.35L880.11-21.35Q877.46-21.35 875.93-20.53 874.41-19.7 873.76-17.7 873.11-15.7 873.11-12.15L873.11-12.15Q873.11-8.6 873.76-6.6 874.41-4.6 875.93-3.78 877.46-2.95 880.11-2.95L880.11-2.95Q882.76-2.95 884.31-3.78 885.86-4.6 886.51-6.6 887.16-8.6 887.16-12.15L887.16-12.15Q887.16-15.7 886.51-17.7 885.86-19.7 884.31-20.53 882.76-21.35 880.11-21.35ZM898.21-24.35L901.51-24.35 902.06-19.7 902.46-18.95 902.46 0 898.21 0 898.21-24.35ZM912.36-24.95L913.46-24.95 912.96-20.95 911.56-20.95Q909.41-20.95 907.26-20.08 905.11-19.2 902.01-17.6L902.01-17.6 901.66-20.25Q904.36-22.45 907.08-23.7 909.81-24.95 912.36-24.95L912.36-24.95Z" opacity="1" transform="matrix(1,0,0,1,0,0)" fill="#000000" class="slogan-text-1" data-fill-palette-color="secondary" id="text-1"></path></svg></g></svg></g></svg></g></svg></g><g><svg viewBox="0 0 214.48851839999998 214.48851839999998" height="214.48851839999998" width="214.48851839999998"><g><svg></svg></g><g id="icon-0"><svg viewBox="0 0 214.48851839999998 214.48851839999998" height="214.48851839999998" width="214.48851839999998"><g><rect width="195.02567136" height="195.02567136" x="9.731423519999993" y="9.731423519999993" fill="#000000" data-fill-palette-color="accent"></rect><rect width="195.02567136" height="195.02567136" x="19.462847039999993" y="-5.329070518200751e-15" fill="#000000" opacity="0.5" data-fill-palette-color="accent"></rect></g><g transform="matrix(1,0,0,1,34.822040733257126,27.80406719999999)"><svg viewBox="0 0 144.84443693348572 158.880384" height="158.880384" width="144.84443693348572"><g><svg xmlns="http://www.w3.org/2000/svg" xmlns:xlink="http://www.w3.org/1999/xlink" version="1.1" x="0" y="0" viewBox="18 15 63.816 70" enable-background="new 0 0 100 100" xml:space="preserve" height="158.880384" width="144.84443693348572" class="icon-z$-0" data-fill-palette-color="background" id="z$-0"><path fill="#233d57" d="M81.816 25H34.978l-1.436-10H18v5h11.209l7.893 55h4.409c-0.788 1.045-1.26 2.339-1.26 3.75 0 3.452 2.798 6.25 6.25 6.25 3.455 0 6.248-2.798 6.248-6.25 0-1.411-0.469-2.705-1.26-3.75h10.02c-0.786 1.045-1.26 2.339-1.26 3.75 0 3.452 2.803 6.25 6.25 6.25 3.457 0 6.25-2.798 6.25-6.25 0-1.411-0.469-2.705-1.26-3.75h3.94l0.649-5H41.436L40 60h37.651L81.816 25zM37.131 40h5.498l0.356 5h-5.137L37.131 40zM47.644 40h5.975v5h-5.62L47.644 40zM53.618 35H47.29l-0.354-5h6.683V35zM58.618 30h6.436l-0.371 5h-6.064V30zM53.618 50v5h-4.912l-0.354-5H53.618zM58.618 50h4.941l-0.381 5h-4.561V50zM58.618 45v-5h5.688l-0.376 5H58.618zM69.321 40h5.674l-0.596 5h-5.454L69.321 40zM75.591 35h-5.894l0.376-5h6.113L75.591 35zM41.921 30l0.356 5h-5.864l-0.718-5H41.921zM38.564 50h4.775l0.354 5h-4.411L38.564 50zM68.198 55l0.371-5h5.234l-0.596 5H68.198z" data-fill-palette-color="background"></path></svg></g></svg></g></svg></g></svg></g></svg></g><defs></defs></svg><rect width="395.52" height="131.76381055115823" fill="none" stroke="none" visibility="hidden"></rect></g></svg></g></svg>